<?xml version="1.0" encoding="UTF-8"?>
<svg version="1.1" xmlns="http://www.w3.org/2000/svg" width="473" height="528">
<path d="M0 0 C5.23874916 3.21527158 10.50913663 6.30153466 15.9375 9.1875 C23.91033125 13.44029979 31.70066256 17.99698452 39.50634766 22.54736328 C43.6042675 24.93454001 47.70826105 27.31120903 51.8125 29.6875 C52.99912231 30.37489258 52.99912231 30.37489258 54.2097168 31.07617188 C60.05643782 34.46063506 65.91975591 37.81506194 71.7890625 41.16015625 C74.97404331 42.98512701 78.14495797 44.83245335 81.3125 46.6875 C85.32829717 49.0357651 89.36459638 51.33466122 93.4375 53.58203125 C104.85499066 59.89994148 116.18475206 66.37430254 127.5078125 72.859375 C131.28928739 75.02449746 135.07631391 77.17950258 138.8671875 79.328125 C139.82085205 79.86977295 140.7745166 80.4114209 141.75708008 80.96948242 C143.58642835 82.00825167 145.4169417 83.04497262 147.2487793 84.0793457 C148.07547119 84.54945068 148.90216309 85.01955566 149.75390625 85.50390625 C150.47908447 85.91455322 151.2042627 86.3252002 151.95141602 86.74829102 C154.09217101 88.05631758 156.08427349 89.37763175 158 91 C158 91.66 158 92.32 158 93 C158.66 93 159.32 93 160 93 C171.0990265 103.24085435 179.12105292 119.58896185 180.18883705 134.66644478 C180.26551059 137.66471088 180.28172112 140.65725111 180.2746582 143.65649414 C180.2823246 145.35628166 180.2823246 145.35628166 180.29014587 147.09040833 C180.3039962 150.82204542 180.30308672 154.55349655 180.30078125 158.28515625 C180.30467418 160.90522834 180.30901007 163.52529981 180.31376648 166.14537048 C180.3219651 171.64030578 180.32108516 177.13518967 180.31567383 182.63012695 C180.30967633 188.91639351 180.32184209 195.20243385 180.3432439 201.48866183 C180.36324896 207.59631617 180.36600134 213.70386796 180.36250877 219.81155205 C180.36301588 222.37905848 180.36813618 224.94656897 180.37832069 227.51405525 C180.45163843 248.6041663 178.89972973 269.23946581 174.375 289.875 C173.99541138 291.61197144 173.99541138 291.61197144 173.6081543 293.3840332 C167.80391901 318.74807651 158.11271407 345.03101797 144 367 C143.08396543 368.48967455 142.17010377 369.98068634 141.2578125 371.47265625 C133.28254528 384.4269862 124.503753 396.24750767 114.57788086 407.77685547 C112.55988816 410.12246125 110.71975245 412.42037133 109 415 C108.34 415 107.68 415 107 415 C107 415.66 107 416.32 107 417 C106.34 417 105.68 417 105 417 C105 417.66 105 418.32 105 419 C104.34 419 103.68 419 103 419 C103 419.66 103 420.32 103 421 C102.34 421 101.68 421 101 421 C101 421.66 101 422.32 101 423 C99.625 424.625 99.625 424.625 98 426 C97.34 426 96.68 426 96 426 C96 426.66 96 427.32 96 428 C94.36567245 429.47769218 92.66523632 430.88269319 90.9375 432.25 C87.54079368 434.9594861 84.18686352 437.67800145 80.9375 440.5625 C78 443 78 443 76 443 C76 443.66 76 444.32 76 445 C74.60161867 445.98734197 73.1944252 446.96429326 71.74804688 447.87988281 C70.06562514 448.95794858 68.44465083 450.13011824 66.828125 451.3046875 C48.53387076 464.55251932 28.0515917 474.89722151 7 483 C6.28070313 483.2774707 5.56140625 483.55494141 4.8203125 483.84082031 C-24.27070216 494.80402333 -50.00488035 499.3745201 -80 491 C-81.85786474 490.50182717 -83.71593917 490.00443569 -85.57421875 489.5078125 C-95.02234158 486.93977982 -104.07951365 484.07338535 -113 480 C-114.37394119 479.40639743 -115.74903568 478.81546027 -117.125 478.2265625 C-131.70747402 471.94052208 -145.81473562 464.89033242 -159 456 C-159.66547852 455.5580127 -160.33095703 455.11602539 -161.01660156 454.66064453 C-163.24622756 453.17833241 -165.4678827 451.68475088 -167.6875 450.1875 C-168.4081665 449.70684082 -169.12883301 449.22618164 -169.87133789 448.73095703 C-171.61748075 447.53922246 -173.31409818 446.27553174 -175 445 C-175 444.34 -175 443.68 -175 443 C-175.7734375 442.6596875 -175.7734375 442.6596875 -176.5625 442.3125 C-179.89547005 440.51782382 -183.14703671 438.50034985 -186 436 C-186 435.34 -186 434.68 -186 434 C-186.58910156 433.72800781 -187.17820312 433.45601563 -187.78515625 433.17578125 C-194.03434624 429.85831002 -201.32543064 423.56485206 -204 417 C-204.66 417 -205.32 417 -206 417 C-206 416.34 -206 415.68 -206 415 C-206.66 415 -207.32 415 -208 415 C-215.51385356 407.72983899 -222.20777477 398.68833785 -228 390 C-228 389.34 -228 388.68 -228 388 C-228.66 388 -229.32 388 -230 388 C-231.23339844 386.41455078 -231.23339844 386.41455078 -232.609375 384.1953125 C-233.11726563 383.38320313 -233.62515625 382.57109375 -234.1484375 381.734375 C-234.67695313 380.87328125 -235.20546875 380.0121875 -235.75 379.125 C-236.26304687 378.30257813 -236.77609375 377.48015625 -237.3046875 376.6328125 C-238.88225454 374.09602128 -240.44133598 371.5484388 -242 369 C-242.74576294 367.80733521 -242.74576294 367.80733521 -243.5065918 366.59057617 C-266.37198162 329.52098581 -279.06712611 283.5549634 -279.17700195 240.07128906 C-279.18357315 238.92188843 -279.19014435 237.77248779 -279.19691467 236.58825684 C-279.21649954 232.81404539 -279.22827538 229.0398734 -279.23828125 225.265625 C-279.24235678 223.96836235 -279.2464323 222.6710997 -279.25063133 221.33452606 C-279.26929096 215.17611482 -279.28387292 209.01772302 -279.2922433 202.85928941 C-279.30200803 195.79588498 -279.32833054 188.73279452 -279.36874419 181.66950059 C-279.39906781 176.17782803 -279.41372725 170.68624474 -279.41702431 165.19449019 C-279.41935539 161.92885842 -279.43009344 158.66363744 -279.45348549 155.39807892 C-279.62857443 129.34232622 -279.62857443 129.34232622 -275 118 C-274.64702347 117.11274231 -274.29404694 116.22548462 -273.93037415 115.31134033 C-272.00399834 110.65502907 -269.57610378 106.32417421 -267 102 C-266.34 102 -265.68 102 -265 102 C-264.34 100.35 -263.68 98.7 -263 97 C-262.34 97 -261.68 97 -261 97 C-261 96.34 -261 95.68 -261 95 C-260.34 95 -259.68 95 -259 95 C-259 94.34 -259 93.68 -259 93 C-258.34 93 -257.68 93 -257 93 C-257 92.34 -257 91.68 -257 91 C-254.57127157 89.32459924 -252.14796804 87.77158526 -249.625 86.25 C-248.89128174 85.80043945 -248.15756348 85.35087891 -247.40161133 84.88769531 C-245.27170991 83.5851381 -243.13625406 82.2921018 -241 81 C-240.04222656 80.4121875 -239.08445313 79.824375 -238.09765625 79.21875 C-233.05637011 76.14658859 -227.91419341 73.30203689 -222.71875 70.5 C-220.10562124 69.05827379 -217.55035785 67.54958452 -215 66 C-210.65690978 63.36116037 -206.22668132 60.92711014 -201.75 58.5234375 C-198.1167238 56.51068506 -194.60251916 54.32302349 -191.09375 52.1015625 C-189 51 -189 51 -186 51 C-186 50.34 -186 49.68 -186 49 C-185.28457031 48.6596875 -184.56914062 48.319375 -183.83203125 47.96875 C-176.94993864 44.6211862 -170.4633583 40.89295826 -163.984375 36.82421875 C-160.41049126 34.63965892 -156.77084279 32.81808492 -153 31 C-151.32882103 30.00755925 -149.66284913 29.00633521 -148 28 C-145.71107367 26.68237929 -143.42005275 25.3693359 -141.125 24.0625 C-140.24521484 23.56073242 -140.24521484 23.56073242 -139.34765625 23.04882812 C-136.9646058 21.68970375 -134.58133174 20.3309749 -132.19726562 18.97363281 C-128.53206682 16.88410819 -124.88618723 14.76452453 -121.25 12.625 C-117.34869894 10.34154857 -113.42311929 8.13250588 -109.4375 6 C-105.65675539 3.96296088 -102.03768328 1.77863042 -98.4375 -0.5625 C-94.16506752 -3.32952474 -89.83723092 -5.69109959 -85.24609375 -7.8828125 C-82.78447196 -9.05466496 -82.78447196 -9.05466496 -79.8125 -11.0625 C-53.38269593 -25.98255068 -23.40324555 -14.48052188 0 0 Z M-91.22509766 21.39599609 C-95.13044595 23.65344272 -99.06320605 25.86050824 -103 28.0625 C-105.33489528 29.37226711 -107.66779442 30.68543505 -110 32 C-110.58362305 32.32871094 -111.16724609 32.65742187 -111.76855469 32.99609375 C-116.70980363 35.79640617 -121.51690535 38.7885168 -126.328125 41.8046875 C-130.15401524 44.14087481 -134.09699458 46.25210839 -138.03857422 48.38525391 C-144.07342562 51.67581509 -150.03399846 55.09982176 -156.00976562 58.49609375 C-157.4725293 59.32560547 -157.4725293 59.32560547 -158.96484375 60.171875 C-159.8374585 60.6678418 -160.71007324 61.16380859 -161.60913086 61.67480469 C-163.71526975 62.84218158 -165.83669372 63.94326108 -168 65 C-168 65.66 -168 66.32 -168 67 C-168.7734375 67.1546875 -168.7734375 67.1546875 -169.5625 67.3125 C-172.86026435 68.24263866 -175.86633332 69.61395512 -179 71 C-179 71.66 -179 72.32 -179 73 C-179.64324219 73.2371875 -180.28648437 73.474375 -180.94921875 73.71875 C-185.02283895 75.42956617 -188.90257512 77.44625844 -192.8125 79.5 C-193.65127686 79.93997314 -194.49005371 80.37994629 -195.35424805 80.83325195 C-201.50933714 84.10654241 -207.40506418 87.67515842 -213.26611328 91.44360352 C-218.66986435 94.88403273 -224.23590872 97.76499982 -230.01171875 100.52734375 C-232.78875626 101.89589688 -235.44008758 103.25697986 -238 105 C-238 105.66 -238 106.32 -238 107 C-238.58910156 107.25652344 -239.17820312 107.51304688 -239.78515625 107.77734375 C-247.3000082 111.92575409 -252.24147223 121.09175063 -255.04801941 128.92514038 C-256.47855634 134.07141587 -256.28690139 139.26478609 -256.2746582 144.56884766 C-256.27976913 145.71631973 -256.28488007 146.86379181 -256.29014587 148.04603577 C-256.30402905 151.83543135 -256.30308437 155.62464451 -256.30078125 159.4140625 C-256.30368733 161.39521868 -256.30659889 163.37637493 -256.310188 165.35753 C-256.3212708 171.59546805 -256.32173139 177.83334593 -256.31567383 184.07128906 C-256.30967234 190.45073032 -256.32184956 196.82994887 -256.3432439 203.20935214 C-256.3610433 208.72486423 -256.36683176 214.24030673 -256.36360615 219.75584638 C-256.3618176 223.03227371 -256.36554962 226.30851129 -256.37832069 229.58491898 C-256.44641053 249.51650065 -255.01425299 268.50377967 -250.125 287.875 C-249.86525391 288.92671387 -249.60550781 289.97842773 -249.33789062 291.06201172 C-245.96390023 304.46104324 -241.3257088 317.26710592 -236 330 C-235.63519531 330.88558594 -235.27039063 331.77117187 -234.89453125 332.68359375 C-228.38014235 347.75840705 -219.86357903 361.93531414 -210.27246094 375.23095703 C-209.03276936 376.95444229 -207.81484855 378.69145237 -206.6015625 380.43359375 C-203.90957766 384.30085783 -203.90957766 384.30085783 -201 388 C-200.34 388 -199.68 388 -199 388 C-198.5978125 388.86625 -198.5978125 388.86625 -198.1875 389.75 C-196.97070811 392.05550043 -195.69666121 394.02056192 -194 396 C-193.34 396 -192.68 396 -192 396 C-191.7328418 396.59240479 -191.46568359 397.18480957 -191.19042969 397.79516602 C-189.98197834 400.0333785 -188.75141672 401.49278973 -186.953125 403.27734375 C-186.355 403.87353516 -185.756875 404.46972656 -185.140625 405.08398438 C-184.51671875 405.69564453 -183.8928125 406.30730469 -183.25 406.9375 C-182.6415625 407.54529297 -182.033125 408.15308594 -181.40625 408.77929688 C-175.46282076 415.52857243 -175.46282076 415.52857243 -168 419 C-168 419.66 -168 420.32 -168 421 C-159.7211079 428.15345611 -150.19315376 434.09970531 -141 440 C-140.39816895 440.38687988 -139.79633789 440.77375977 -139.17626953 441.17236328 C-119.91089993 453.4349987 -99.41991546 461.28343199 -77.625 467.75 C-76.63862549 468.04406738 -75.65225098 468.33813477 -74.63598633 468.64111328 C-60.25531775 472.80917817 -47.6935581 474.27453132 -33 470.875 C-31.51439575 470.54048828 -31.51439575 470.54048828 -29.9987793 470.19921875 C-16.2599966 467.01392416 -2.84897457 462.84636485 10 457 C10.64146973 456.71398926 11.28293945 456.42797852 11.94384766 456.13330078 C20.8429078 452.15501874 29.27194986 447.8633337 37.4609375 442.56640625 C40 441 40 441 43 440 C43 439.34 43 438.68 43 438 C43.85464844 437.77183594 44.70929688 437.54367187 45.58984375 437.30859375 C49.4786449 435.81632756 52.37390652 433.66520351 55.5625 431.0625 C58.5890935 428.63060558 61.53802821 426.26922447 64.90234375 424.30859375 C65.59457031 423.87675781 66.28679687 423.44492187 67 423 C67 422.34 67 421.68 67 421 C67.52722656 420.79117187 68.05445313 420.58234375 68.59765625 420.3671875 C72.00284795 418.42927353 74.61205446 415.81805324 77.4375 413.125 C78.55968804 412.06350568 79.68336299 411.00358087 80.80859375 409.9453125 C81.34637451 409.43935547 81.88415527 408.93339844 82.43823242 408.41210938 C83.84555775 407.13964264 85.33338434 405.95760285 86.828125 404.7890625 C89.32891149 402.72906212 90.06410201 401.06293887 91 398 C91.66 398 92.32 398 93 398 C93 397.34 93 396.68 93 396 C93.66 396 94.32 396 95 396 C96.60634015 394.26608049 98.1375287 392.461909 99.625 390.625 C100.85089844 389.12839844 100.85089844 389.12839844 102.1015625 387.6015625 C104.19648969 385.26750115 104.19648969 385.26750115 104 383 C104.66 383 105.32 383 106 383 C107.77827119 380.65936955 109.43346221 378.31702903 111.0625 375.875 C111.54984619 375.15376953 112.03719238 374.43253906 112.53930664 373.68945312 C114.03575875 371.4658466 115.51991191 369.23452601 117 367 C117.43924805 366.3390332 117.87849609 365.67806641 118.33105469 364.99707031 C124.10571533 356.33120231 124.10571533 356.33120231 128.98828125 347.1484375 C129.79951587 345.4257385 130.66301051 343.72769122 131.54296875 342.0390625 C141.72974149 322.38511245 148.26931783 301.56310944 153 280 C153.30744141 278.63101563 153.30744141 278.63101563 153.62109375 277.234375 C154.13471984 274.82949005 154.57303409 272.42180847 155 270 C155.16867584 269.08220764 155.33735168 268.16441528 155.51113892 267.21881104 C157.61789148 253.96212927 157.32837061 240.62459906 157.3359375 227.234375 C157.34074478 225.22759151 157.34555653 223.22080798 157.35085833 221.21402574 C157.36702932 214.92554854 157.37203706 208.63712843 157.37060547 202.34863281 C157.36940116 195.89379264 157.39058644 189.4392852 157.4220928 182.98452926 C157.4483398 177.40531676 157.45896952 171.82621262 157.45769465 166.24693894 C157.45718825 162.93064061 157.46457645 159.61470451 157.48405075 156.29845428 C157.50374205 152.60201034 157.49786121 148.9064199 157.48583984 145.20996094 C157.49707886 144.13228455 157.50831787 143.05460815 157.51989746 141.9442749 C157.41903055 129.680409 152.7776985 117.67520022 143.93359375 108.96484375 C138.43532215 104.4895064 132.2702982 101.25288071 126 98 C118.20177246 93.80802202 110.50068314 89.45572065 102.82470703 85.04541016 C100.97834241 83.98759194 99.12843699 82.93623767 97.27734375 81.88671875 C96.05981191 81.19546029 94.84236259 80.50405648 93.625 79.8125 C93.04024902 79.48072754 92.45549805 79.14895508 91.85302734 78.80712891 C88.6118305 76.95726606 85.44260245 75.03141933 82.3125 73 C79.21687639 70.74156545 79.21687639 70.74156545 76 71 C76 70.34 76 69.68 76 69 C73.69 68.34 71.38 67.68 69 67 C69 66.34 69 65.68 69 65 C63.35114266 61.9108355 57.69689459 58.83229623 52.02734375 55.78125 C50.52397461 54.97107422 50.52397461 54.97107422 48.99023438 54.14453125 C46.95204985 53.04654573 44.91298345 51.95019571 42.87304688 50.85546875 C33.16501066 45.61700491 23.79790427 39.9061536 14.46875 34.02734375 C11.79964076 32.41194615 9.06049823 31.0105842 6.26171875 29.6328125 C0.81654054 26.94916877 -4.43358496 23.97521815 -9.6875 20.9375 C-10.58533203 20.42123047 -11.48316406 19.90496094 -12.40820312 19.37304688 C-14.1475399 18.37276895 -15.88618027 17.37127882 -17.62402344 16.3684082 C-19.74411197 15.14737489 -21.8689816 13.93529979 -23.99609375 12.7265625 C-25.8181646 11.67928641 -27.6192861 10.59257493 -29.375 9.4375 C-51.6856517 -2.78023784 -71.78384317 10.11558879 -91.22509766 21.39599609 Z " fill="#E70F93" transform="translate(287,17)"/>
<path d="M0 0 C5.00028314 1.34153938 9.19067503 3.48370003 13 7 C13 7.66 13 8.32 13 9 C13.66 9 14.32 9 15 9 C26.0990265 19.24085435 34.12105292 35.58896185 35.18883705 50.66644478 C35.26551059 53.66471088 35.28172112 56.65725111 35.2746582 59.65649414 C35.27976913 60.78968582 35.28488007 61.9228775 35.29014587 63.09040833 C35.3039962 66.82204542 35.30308672 70.55349655 35.30078125 74.28515625 C35.30467418 76.90522834 35.30901007 79.52529981 35.31376648 82.14537048 C35.3219651 87.64030578 35.32108516 93.13518967 35.31567383 98.63012695 C35.30967633 104.91639351 35.32184209 111.20243385 35.3432439 117.48866183 C35.36324896 123.59631617 35.36600134 129.70386796 35.36250877 135.81155205 C35.36301588 138.37905848 35.36813618 140.94656897 35.37832069 143.51405525 C35.45163843 164.6041663 33.89972973 185.23946581 29.375 205.875 C29.12194092 207.03298096 28.86888184 208.19096191 28.6081543 209.3840332 C22.80391901 234.74807651 13.11271407 261.03101797 -1 283 C-1.91603457 284.48967455 -2.82989623 285.98068634 -3.7421875 287.47265625 C-11.71745472 300.4269862 -20.496247 312.24750767 -30.42211914 323.77685547 C-32.44011184 326.12246125 -34.28024755 328.42037133 -36 331 C-36.66 331 -37.32 331 -38 331 C-38 331.66 -38 332.32 -38 333 C-38.66 333 -39.32 333 -40 333 C-40 333.66 -40 334.32 -40 335 C-40.66 335 -41.32 335 -42 335 C-42 335.66 -42 336.32 -42 337 C-42.66 337 -43.32 337 -44 337 C-44 337.66 -44 338.32 -44 339 C-45.375 340.625 -45.375 340.625 -47 342 C-47.66 342 -48.32 342 -49 342 C-49 342.66 -49 343.32 -49 344 C-50.53125 345.5078125 -50.53125 345.5078125 -52.5 347.125 C-53.1496875 347.66382813 -53.799375 348.20265625 -54.46875 348.7578125 C-54.9740625 349.16773438 -55.479375 349.57765625 -56 350 C-56.66 349.67 -57.32 349.34 -58 349 C-54.8787471 345.87240309 -51.74672787 342.75598303 -48.609375 339.64453125 C-46.98952395 338.03391388 -45.3697338 336.42323528 -43.75 334.8125 C-42.50863281 333.58370117 -42.50863281 333.58370117 -41.2421875 332.33007812 C-40.45585937 331.54697266 -39.66953125 330.76386719 -38.859375 329.95703125 C-38.14233398 329.24522705 -37.42529297 328.53342285 -36.68652344 327.80004883 C-34.92904829 326.09575224 -34.92904829 326.09575224 -34 324 C-33.34 324 -32.68 324 -32 324 C-31.71125 323.401875 -31.4225 322.80375 -31.125 322.1875 C-30 320 -30 320 -28 317 C-27.34 317 -26.68 317 -26 317 C-25.72309326 316.41677979 -25.44618652 315.83355957 -25.16088867 315.23266602 C-24.0500781 313.09631214 -22.83203227 311.22868469 -21.42578125 309.27734375 C-20.67723877 308.23126953 -20.67723877 308.23126953 -19.91357422 307.1640625 C-19.38521973 306.42929687 -18.85686523 305.69453125 -18.3125 304.9375 C-13.66805013 298.40912365 -9.15721504 291.85305099 -5 285 C-4.40010254 284.01700928 -4.40010254 284.01700928 -3.78808594 283.01416016 C-2.43277813 280.78573095 -1.08970771 278.55033848 0.25 276.3125 C0.67490723 275.61125 1.09981445 274.91 1.53759766 274.1875 C3.82977697 270.31585875 5.62875213 266.56061819 7.12036133 262.29589844 C8.2219688 259.42065097 9.54524371 256.6812004 10.87109375 253.90234375 C14.11670055 246.94317759 16.66318526 239.85122654 19.0625 232.5625 C19.27688721 231.91580353 19.49127441 231.26910706 19.7121582 230.60281372 C27.59588519 206.73154173 32.15569142 182.65628563 32.14526367 157.47363281 C32.14862228 156.28504166 32.1519809 155.0964505 32.15544128 153.87184143 C32.16486323 149.98225838 32.16688942 146.09271872 32.16796875 142.203125 C32.16939462 140.85361462 32.17099107 139.50410441 32.17275429 138.15459442 C32.18196563 131.09736203 32.1860938 124.04014837 32.18530273 116.98291016 C32.18470055 110.42763507 32.19529077 103.87244189 32.2110464 97.31718755 C32.22414647 91.66336027 32.22948572 86.00955974 32.22884732 80.35571742 C32.22859341 76.98983405 32.23138682 73.62402392 32.24202538 70.25815582 C32.25183387 66.50829751 32.2489445 62.75865086 32.24291992 59.00878906 C32.24853943 57.90626297 32.25415894 56.80373688 32.25994873 55.6678009 C32.18838273 38.117978 25.06335335 23.30991149 13.0625 10.6875 C9.57735647 7.32014462 5.79981977 4.67826665 1.6875 2.12890625 C1.130625 1.75636719 0.57375 1.38382812 0 1 C0 0.67 0 0.34 0 0 Z " fill="#B2D0F3" transform="translate(432,101)"/>
<path d="M0 0 C5.00028314 1.34153938 9.19067503 3.48370003 13 7 C13 7.66 13 8.32 13 9 C13.66 9 14.32 9 15 9 C24.76623465 18.01111341 33.45491843 33.04188965 34.12304783 46.47370625 C34.12166514 47.78311318 34.12166514 47.78311318 34.12025452 49.11897278 C34.12162918 50.12713043 34.12300385 51.13528809 34.12442017 52.17399597 C34.11902725 53.81613823 34.11902725 53.81613823 34.11352539 55.49145508 C34.11367142 56.65286011 34.11381744 57.81426514 34.1139679 59.01086426 C34.11327161 62.84710563 34.10549243 66.68329836 34.09765625 70.51953125 C34.09579106 73.18039533 34.09431844 75.84125672 34.09336853 78.50212097 C34.09026339 84.78829702 34.08206102 91.07445563 34.07201904 97.36062402 C34.06083253 104.51900521 34.05534106 111.67738725 34.05032361 118.83577502 C34.03987772 133.55719225 34.0222941 148.27859582 34 163 C33.67 163 33.34 163 33 163 C32.99668985 162.4095414 32.99337971 161.81908279 32.98996925 161.21073151 C32.90862704 146.82071661 32.81649811 132.43080037 32.71247292 118.0409317 C32.66242449 111.08199749 32.61598094 104.1230746 32.578125 97.1640625 C32.54157319 90.44666975 32.49484167 83.72941787 32.44193649 77.01213074 C32.42342194 74.45096544 32.40830317 71.88977324 32.39665604 69.3285675 C32.37974361 65.7377947 32.35069566 62.14730777 32.31884766 58.55664062 C32.31668747 57.50071716 32.31452728 56.4447937 32.31230164 55.35687256 C32.1153617 37.94407802 24.9644952 23.2059332 13.0625 10.6875 C9.57735647 7.32014462 5.79981977 4.67826665 1.6875 2.12890625 C1.130625 1.75636719 0.57375 1.38382812 0 1 C0 0.67 0 0.34 0 0 Z " fill="#6BA4E8" transform="translate(432,101)"/>
<path d="M0 0 C2.16776526 2.16776526 2.69602868 3.87659753 3.59741211 6.74755859 C6.57163495 16.15869843 10.6593316 25.00377622 14.9375 33.875 C15.2320105 34.49170563 15.526521 35.10841125 15.82995605 35.74380493 C19.71345038 43.85273394 23.99544836 51.52517464 29 59 C29.5252124 59.80002441 30.0504248 60.60004883 30.59155273 61.42431641 C37.4679603 71.85217986 44.69561557 81.67251541 53 91 C54.31278788 92.52058484 55.62532812 94.04138355 56.9375 95.5625 C58.71704555 97.59443302 60.49921477 99.48641439 62.4375 101.375 C64 103 64 103 64 105 C64.66 105 65.32 105 66 105 C65.67 105.66 65.34 106.32 65 107 C63 105.625 63 105.625 61 104 C61 103.34 61 102.68 61 102 C60.34 102 59.68 102 59 102 C59 101.34 59 100.68 59 100 C58.34 100 57.68 100 57 100 C49.48614644 92.72983899 42.79222523 83.68833785 37 75 C37 74.34 37 73.68 37 73 C36.34 73 35.68 73 35 73 C33.76660156 71.41455078 33.76660156 71.41455078 32.390625 69.1953125 C31.88273437 68.38320313 31.37484375 67.57109375 30.8515625 66.734375 C30.32304688 65.87328125 29.79453125 65.0121875 29.25 64.125 C28.73695312 63.30257812 28.22390625 62.48015625 27.6953125 61.6328125 C26.64457948 59.94319157 25.60030093 58.24954226 24.56201172 56.55224609 C23.55277235 54.90320134 22.53417991 53.25982815 21.50439453 51.62353516 C17.22268953 44.71605656 13.77290878 37.50036742 10.375 30.125 C9.81554688 28.93519531 9.25609375 27.74539063 8.6796875 26.51953125 C0 7.78860186 0 7.78860186 0 0 Z " fill="#A2C7EE" transform="translate(22,332)"/>
<path d="M0 0 C0.66 0 1.32 0 2 0 C2 0.66 2 1.32 2 2 C2.56203125 2.24234375 3.1240625 2.4846875 3.703125 2.734375 C6.45389663 4.2501063 8.45788803 6.10388242 10.75 8.25 C14.99584485 12.13634265 19.32978356 15.6457009 24 19 C25.28197266 19.93972656 25.28197266 19.93972656 26.58984375 20.8984375 C29.38455644 22.94449644 32.19200564 24.9722241 35 27 C36.16982422 27.86625 36.16982422 27.86625 37.36328125 28.75 C44.85493471 34.18931814 52.85799752 38.62461581 61 43 C61.62084473 43.33644531 62.24168945 43.67289062 62.88134766 44.01953125 C75.45150799 50.77023517 88.71284448 55.85043255 102 61 C102 61.33 102 61.66 102 62 C98.05079326 62.22688441 95.42185519 61.58332464 91.8125 60 C90.2346875 59.31164062 90.2346875 59.31164062 88.625 58.609375 C87.42875 58.07828125 86.2325 57.5471875 85 57 C83.6046587 56.39989632 82.20879977 55.80099517 80.8125 55.203125 C66.25381498 48.91729276 52.16720348 41.87815462 39 33 C38.33452148 32.5580127 37.66904297 32.11602539 36.98339844 31.66064453 C34.75377244 30.17833241 32.5321173 28.68475088 30.3125 27.1875 C29.5918335 26.70684082 28.87116699 26.22618164 28.12866211 25.73095703 C26.38251925 24.53922246 24.68590182 23.27553174 23 22 C23 21.34 23 20.68 23 20 C22.484375 19.773125 21.96875 19.54625 21.4375 19.3125 C18.10452995 17.51782382 14.85296329 15.50034985 12 13 C12 12.34 12 11.68 12 11 C11.41605469 10.73058594 10.83210938 10.46117187 10.23046875 10.18359375 C7.99415374 8.99689769 6.23570747 7.70202394 4.3125 6.0625 C3.71050781 5.55847656 3.10851562 5.05445313 2.48828125 4.53515625 C1 3 1 3 0 0 Z " fill="#9FC2EA" transform="translate(89,440)"/>
<path d="M0 0 C0.66 0 1.32 0 2 0 C7 5.47619048 7 5.47619048 7 8 C7.66 8 8.32 8 9 8 C10.41015625 9.43359375 10.41015625 9.43359375 12.0625 11.4375 C17.95056438 18.33948418 24.05668282 24.67036193 31.56640625 29.80859375 C32.03949219 30.20175781 32.51257813 30.59492188 33 31 C33 31.66 33 32.32 33 33 C33.78890625 33.34417969 33.78890625 33.34417969 34.59375 33.6953125 C37.13965019 35.07571942 39.36945326 36.72196913 41.66772461 38.47729492 C56.04973706 49.44825046 71.71878087 58.19779915 88 66 C90.00181241 66.99636695 92.00244946 67.99511601 94 69 C89.69566817 70.43477728 87.04697879 68.45780254 83.1875 66.5625 C82.42775879 66.19560059 81.66801758 65.82870117 80.88525391 65.45068359 C65.51560674 57.93141885 50.65585472 48.99430662 37.47607422 38.03637695 C35.91398186 36.75167844 34.33606366 35.48576988 32.73706055 34.24731445 C26.04181389 29.05844613 20.06896032 23.3373595 14.125 17.3125 C13.20203125 16.38888672 12.2790625 15.46527344 11.328125 14.51367188 C0 3.1116678 0 3.1116678 0 0 Z " fill="#A0C4EC" transform="translate(86,405)"/>
<path d="M0 0 C0.99 0.495 0.99 0.495 2 1 C0.54712339 2.33927721 -0.91247259 3.67126847 -2.375 5 C-3.18710937 5.7425 -3.99921875 6.485 -4.8359375 7.25 C-7 9 -7 9 -9 9 C-9 9.66 -9 10.32 -9 11 C-10.39838133 11.98734197 -11.8055748 12.96429326 -13.25195312 13.87988281 C-14.93437486 14.95794858 -16.55534917 16.13011824 -18.171875 17.3046875 C-36.47743133 30.56070376 -56.95929683 40.83888029 -78 49 C-79.09828125 49.42796875 -80.1965625 49.8559375 -81.328125 50.296875 C-84.06644792 51.0174863 -85.38939482 51.00407891 -88 50 C-87.05640625 49.62488281 -86.1128125 49.24976563 -85.140625 48.86328125 C-81.74773244 47.51252675 -78.35834799 46.15317175 -74.97021484 44.79052734 C-73.28010771 44.11239018 -71.58755558 43.44035221 -69.89453125 42.76953125 C-48.70553861 34.2062556 -29.37233106 22.50920101 -11 9 C-10.28473145 8.47599609 -9.56946289 7.95199219 -8.83251953 7.41210938 C-8.12595215 6.88939453 -7.41938477 6.36667969 -6.69140625 5.828125 C-6.05533447 5.35793945 -5.4192627 4.88775391 -4.76391602 4.40332031 C-3.04444115 3.03535609 -1.51979788 1.58440172 0 0 Z " fill="#9FC3EC" transform="translate(372,451)"/>
<path d="M0 0 C2.62952158 3.15390594 3.98121844 6.21323079 5.375 10.0625 C13.73066381 32.27873553 25.74971383 53.07342333 40.85546875 71.3984375 C42 73 42 73 42 75 C38.46383957 73.82127986 37.96130856 72.91484182 35.890625 69.9140625 C35.3042627 69.07125732 34.71790039 68.22845215 34.11376953 67.36010742 C33.49872559 66.45752197 32.88368164 65.55493652 32.25 64.625 C31.61819824 63.70759033 30.98639648 62.79018066 30.33544922 61.8449707 C28.54629661 59.23704159 26.77002526 56.62093747 25 54 C24.27554688 52.92878906 23.55109375 51.85757813 22.8046875 50.75390625 C15.56248913 39.68850083 9.83911394 27.94933467 4.5 15.875 C4.05422607 14.87887695 3.60845215 13.88275391 3.14916992 12.85644531 C2.73900635 11.91124023 2.32884277 10.96603516 1.90625 9.9921875 C1.53822266 9.15026855 1.17019531 8.30834961 0.79101562 7.44091797 C-0.05707509 4.82387754 -0.148819 2.73302438 0 0 Z " fill="#A7C6EC" transform="translate(44,330)"/>
<path d="M0 0 C3.56749625 0.64808711 6.92098861 1.56039675 10.359375 2.70703125 C11.89803223 3.21351196 11.89803223 3.21351196 13.46777344 3.73022461 C14.5509082 4.08737549 15.63404297 4.44452637 16.75 4.8125 C26.74725506 8.06544853 36.70908249 10.86209812 47 13 C48.30904297 13.28810547 48.30904297 13.28810547 49.64453125 13.58203125 C57.93458693 15.05306932 65.65381396 13.64740728 73.73828125 11.65625 C76.92307743 11.01547664 79.76213807 10.88243769 83 11 C79.10264767 13.59823489 75.41471558 14.18502821 70.875 15.125 C69.64910156 15.39763672 69.64910156 15.39763672 68.3984375 15.67578125 C59.80840871 17.483493 52.21112964 17.40123638 43.6875 15.375 C42.92550293 15.1989624 42.16350586 15.0229248 41.37841797 14.84155273 C6.56357707 6.56357707 6.56357707 6.56357707 0 0 Z " fill="#ADCDF1" transform="translate(180,475)"/>
<path d="M0 0 C1 3 1 3 0.1706543 4.9543457 C-0.27366943 5.68741943 -0.71799316 6.42049316 -1.17578125 7.17578125 C-1.66908936 7.99699463 -2.16239746 8.81820801 -2.6706543 9.66430664 C-3.21246338 10.53821045 -3.75427246 11.41211426 -4.3125 12.3125 C-4.86139893 13.21025146 -5.41029785 14.10800293 -5.97583008 15.03295898 C-15.81372025 30.95711006 -27.28937069 45.28101178 -40 59 C-40 56 -40 56 -39 54 C-38.34 54 -37.68 54 -37 54 C-37 53.34 -37 52.68 -37 52 C-36.34 52 -35.68 52 -35 52 C-34.7421875 51.43796875 -34.484375 50.8759375 -34.21875 50.296875 C-32.85830223 47.73295421 -31.27211038 45.54773635 -29.5 43.25 C-28.58734375 42.05117188 -28.58734375 42.05117188 -27.65625 40.828125 C-27.1096875 40.22484375 -26.563125 39.6215625 -26 39 C-25.34 39 -24.68 39 -24 39 C-23.61521484 38.17628906 -23.61521484 38.17628906 -23.22265625 37.3359375 C-21.80279749 34.6232361 -20.15610938 32.15951485 -18.4375 29.625 C-8.98801618 15.74112504 -8.98801618 15.74112504 -1 1 C-0.67 0.67 -0.34 0.34 0 0 Z " fill="#BDDBF7" transform="translate(417,361)"/>
<path d="M0 0 C4.15910071 0.66712392 7.50133451 2.88474905 11.0625 5 C15.85554894 7.86013785 15.85554894 7.86013785 21 10 C21 10.66 21 11.32 21 12 C21.54527344 12.09925781 22.09054687 12.19851562 22.65234375 12.30078125 C25.60843376 13.18121405 27.92132917 14.59435701 30.5625 16.1875 C34.48219619 18.52223429 38.41261948 20.7893233 42.4375 22.9375 C48.78845901 26.36367526 54.88632407 30.17044783 61 34 C58 35 58 35 56.13745117 34.23071289 C55.44627197 33.8155542 54.75509277 33.40039551 54.04296875 32.97265625 C53.26719482 32.51415283 52.4914209 32.05564941 51.69213867 31.58325195 C50.86560791 31.08140381 50.03907715 30.57955566 49.1875 30.0625 C47.45854514 29.03610146 45.72937698 28.01006214 44 26.984375 C43.14792969 26.47455078 42.29585938 25.96472656 41.41796875 25.43945312 C38.19719079 23.52207562 34.94650019 21.66420465 31.6875 19.8125 C28.26070165 17.85946458 24.83415421 15.90615942 21.4140625 13.94140625 C14.32352385 9.87121312 7.19770466 5.877947 0 2 C0 1.34 0 0.68 0 0 Z " fill="#C0DCF8" transform="translate(363,86)"/>
<path d="M0 0 C-2.42108805 1.21969171 -4.85265641 2.41267357 -7.29296875 3.59375 C-15.43176245 7.56193905 -23.31417863 11.81065331 -31.06323242 16.49804688 C-34.37261156 18.49280758 -37.67963756 20.37265422 -41.15234375 22.0703125 C-44.46813823 23.69298701 -47.50119247 25.55371294 -50.5625 27.625 C-54.70517525 30.31946984 -58.16630072 32.03326014 -63 33 C-57.43429826 26.952651 -49.08531036 23.4390516 -41.93359375 19.58984375 C-36.29796719 16.53564933 -30.69952388 13.42868289 -25.17578125 10.17578125 C-24.37462891 9.70462891 -23.57347656 9.23347656 -22.74804688 8.74804688 C-21.11052154 7.78286554 -19.47513261 6.81405127 -17.84179688 5.84179688 C-12.04518324 2.44442834 -6.91099416 -0.40652907 0 0 Z " fill="#BCDBF7" transform="translate(229,22)"/>
<path d="M0 0 C5.00028314 1.34153938 9.19067503 3.48370003 13 7 C13 7.66 13 8.32 13 9 C13.66 9 14.32 9 15 9 C25.56581567 18.74887116 33.28295218 33.65904358 34 48 C33.01 47.505 33.01 47.505 32 47 C31.54786276 45.19145105 31.10112961 43.38144238 30.67578125 41.56640625 C26.24008994 24.7210352 16.4844217 11.30199791 1.6875 2.12890625 C1.130625 1.75636719 0.57375 1.38382812 0 1 C0 0.67 0 0.34 0 0 Z " fill="#B9D8F6" transform="translate(432,101)"/>
<path d="M0 0 C0.66 0.33 1.32 0.66 2 1 C-32.41849291 22.3549748 -32.41849291 22.3549748 -43.375 20.625 C-44.179375 20.315625 -44.179375 20.315625 -45 20 C-44.05640625 19.62488281 -43.1128125 19.24976563 -42.140625 18.86328125 C-38.74773244 17.51252675 -35.35834799 16.15317175 -31.97021484 14.79052734 C-30.28010771 14.11239018 -28.58755558 13.44035221 -26.89453125 12.76953125 C-18.3556581 9.31864872 -10.19538384 5.18570917 -2 1 C-1.34 0.67 -0.68 0.34 0 0 Z " fill="#97BEE8" transform="translate(329,481)"/>
<path d="M0 0 C0.66 0.33 1.32 0.66 2 1 C-1.51065348 3.11559031 -5.02413549 5.22616708 -8.54296875 7.328125 C-11.59835351 9.1541443 -14.63993262 11.00107915 -17.67578125 12.859375 C-19.20034154 13.78154648 -20.72507707 14.70342831 -22.25 15.625 C-22.97630615 16.07472168 -23.7026123 16.52444336 -24.45092773 16.98779297 C-26.25566067 18.07059005 -28.12432953 19.04534261 -30 20 C-30.99 19.67 -31.98 19.34 -33 19 C-29.39348863 15.91062341 -25.84375191 13.78916276 -21.5625 11.75 C-15.67817826 8.91364953 -10.02498219 5.79590754 -4.44360352 2.40136719 C-2.99545896 1.54255194 -1.50078295 0.76310997 0 0 Z " fill="#B2D4F5" transform="translate(152,62)"/>
<path d="M0 0 C0.66 0 1.32 0 2 0 C7 5.47619048 7 5.47619048 7 8 C7.66 8 8.32 8 9 8 C10.375 9.3984375 10.375 9.3984375 12 11.375 C16.37943323 16.54143497 21.17031617 21.25777524 26 26 C25.67 26.66 25.34 27.32 25 28 C22.079247 25.10410935 19.16189856 22.20483506 16.24755859 19.30249023 C15.2572605 18.31719691 14.26606369 17.33280594 13.27392578 16.34936523 C11.84166895 14.92934377 10.41298827 13.50571826 8.984375 12.08203125 C8.12553711 11.22843018 7.26669922 10.3748291 6.38183594 9.49536133 C0 2.80934809 0 2.80934809 0 0 Z " fill="#95B8E6" transform="translate(86,405)"/>
<path d="M0 0 C2.89734284 2.75755875 5.24024134 5.57780668 7.5 8.875 C8.09941406 9.74640625 8.69882812 10.6178125 9.31640625 11.515625 C11.22638506 14.33406241 13.12874642 17.15569456 15 20 C11.60812721 18.58426179 9.90302459 16.95769034 7.75 14 C7.22921875 13.29875 6.7084375 12.5975 6.171875 11.875 C5 10 5 10 5 8 C4.34 8 3.68 8 3 8 C0.95830515 5.09451118 0 3.59857954 0 0 Z " fill="#9DBFE9" transform="translate(54,397)"/>
<path d="M0 0 C4.95021409 0.79647029 9.58170153 2.45320707 14.3125 4.0625 C15.14845703 4.34416016 15.98441406 4.62582031 16.84570312 4.91601562 C18.89805624 5.60795182 20.94915483 6.30360709 23 7 C23 7.33 23 7.66 23 8 C15.09136132 7.60456807 5.79373751 5.79373751 0 0 Z " fill="#B0D0F4" transform="translate(180,475)"/>
<path d="M0 0 C0.66 0.33 1.32 0.66 2 1 C0.71319131 3.6274838 -0.57917678 6.25196683 -1.875 8.875 C-2.23980469 9.62136719 -2.60460937 10.36773437 -2.98046875 11.13671875 C-3.33496094 11.85214844 -3.68945312 12.56757813 -4.0546875 13.3046875 C-4.37937012 13.96452637 -4.70405273 14.62436523 -5.03857422 15.30419922 C-6 17 -6 17 -8 19 C-7.62521453 14.00286042 -5.90761563 10.96294869 -3.2109375 6.90234375 C-1.80971216 4.70106395 -0.84725884 2.46475298 0 0 Z " fill="#AFCFF0" transform="translate(439,364)"/>
<path d="M0 0 C5.89621951 0.60165505 11.35893654 1.69971892 15.9375 5.6875 C16.4634375 6.3371875 16.4634375 6.3371875 17 7 C10.85564321 6.20717977 5.10936364 3.40624243 0 0 Z " fill="#B7D8F4" transform="translate(246,22)"/>
<path d="M0 0 C4.09568647 3.4889181 6.99454088 8.02756026 9 13 C8.67 13.99 8.34 14.98 8 16 C7.05096132 14.33918231 6.10237606 12.67810365 5.15625 11.015625 C4.39439116 9.68751972 3.62373474 8.36441678 2.84375 7.046875 C0 2.2125 0 2.2125 0 0 Z " fill="#99BDE9" transform="translate(56,360)"/>
<path d="M0 0 C0.99 0.33 1.98 0.66 3 1 C2.28199219 1.42796875 1.56398437 1.8559375 0.82421875 2.296875 C-0.99598858 3.39453807 -2.8067924 4.5080252 -4.60546875 5.640625 C-5.45753906 6.17171875 -6.30960938 6.7028125 -7.1875 7.25 C-8.04730469 7.79140625 -8.90710938 8.3328125 -9.79296875 8.890625 C-10.52128906 9.25671875 -11.24960938 9.6228125 -12 10 C-12.66 9.67 -13.32 9.34 -14 9 C-13.24074219 8.51789062 -12.48148438 8.03578125 -11.69921875 7.5390625 C-10.70535156 6.90742188 -9.71148437 6.27578125 -8.6875 5.625 C-7.70136719 4.99851562 -6.71523437 4.37203125 -5.69921875 3.7265625 C-3.78712071 2.50348387 -1.8885966 1.2590644 0 0 Z " fill="#B6D6F6" transform="translate(194,13)"/>
<path d="M0 0 C0.99 0.33 1.98 0.66 3 1 C1.03669423 2.2325468 -0.92836817 3.46187231 -2.8984375 4.68359375 C-4.5536658 5.72041891 -6.18738263 6.79158842 -7.8125 7.875 C-8.534375 8.24625 -9.25625 8.6175 -10 9 C-10.99 8.67 -11.98 8.34 -13 8 C-10.90320896 6.63304778 -8.7989062 5.28153009 -6.6875 3.9375 C-6.09259766 3.54755859 -5.49769531 3.15761719 -4.88476562 2.75585938 C-3.30390365 1.75788505 -1.65405288 0.87131304 0 0 Z " fill="#B4D5F5" transform="translate(77,80)"/>
<path d="M0 0 C-1.92989218 1.19982444 -3.86919228 2.38452818 -5.8125 3.5625 C-7.43091797 4.55443359 -7.43091797 4.55443359 -9.08203125 5.56640625 C-12 7 -12 7 -15 6 C-10.76325167 2.27679693 -5.77650185 -1.92550062 0 0 Z " fill="#BFDBF8" transform="translate(134,75)"/>
<path d="M0 0 C0.66 0.66 1.32 1.32 2 2 C-3.94 5.465 -3.94 5.465 -10 9 C-10 8.01 -10 7.02 -10 6 C-7.8125 4.39453125 -7.8125 4.39453125 -5 2.8125 C-4.071875 2.28269531 -3.14375 1.75289063 -2.1875 1.20703125 C-1.465625 0.80871094 -0.74375 0.41039062 0 0 Z " fill="#ADCBF2" transform="translate(342,473)"/>
<path d="M0 0 C0.66 0 1.32 0 2 0 C3.5078125 1.96875 3.5078125 1.96875 5.125 4.5 C5.66382813 5.3353125 6.20265625 6.170625 6.7578125 7.03125 C7.16773438 7.6809375 7.57765625 8.330625 8 9 C7.01 9.495 7.01 9.495 6 10 C4.99421411 8.71283353 3.99553202 7.42011342 3 6.125 C2.443125 5.40570313 1.88625 4.68640625 1.3125 3.9453125 C0 2 0 2 0 0 Z " fill="#CAE0F9" transform="translate(449,114)"/>
<path d="M0 0 C0.66 0 1.32 0 2 0 C4.6875 2.8125 4.6875 2.8125 7 6 C6.67 6.99 6.34 7.98 6 9 C4.99406757 7.8803014 3.9954151 6.7540588 3 5.625 C2.443125 4.99851562 1.88625 4.37203125 1.3125 3.7265625 C0 2 0 2 0 0 Z " fill="#B2CEF1" transform="translate(68,417)"/>
<path d="M0 0 C3.55234558 0.60897353 6.7331874 1.45733849 10 3 C10.33 3.66 10.66 4.32 11 5 C7.08406554 4.21681311 3.63593365 2.60820142 0 1 C0 0.67 0 0.34 0 0 Z " fill="#9DC1EC" transform="translate(180,475)"/>
<path d="M0 0 C0.66 0 1.32 0 2 0 C7 5.47619048 7 5.47619048 7 8 C3.28631113 6.76210371 2.22645819 5.14775123 0 2 C0 1.34 0 0.68 0 0 Z " fill="#A3C4EE" transform="translate(86,405)"/>
</svg>
